<?xml version="1.0" standalone="no"?>
<!DOCTYPE svg PUBLIC "-//W3C//DTD SVG 20010904//EN"
 "http://www.w3.org/TR/2001/REC-SVG-20010904/DTD/svg10.dtd">
<svg version="1.0" xmlns="http://www.w3.org/2000/svg"
 width="1593.000000pt" height="1593.000000pt" viewBox="0 0 1593.000000 1593.000000"
 preserveAspectRatio="xMidYMid meet">
<metadata>
Created by potrace 1.14, written by Peter Selinger 2001-2017
</metadata>
<g transform="translate(0.000000,1593.000000) scale(0.100000,-0.100000)"
fill="#000000" stroke="none">
<path d="M7385 14900 c-1091 -55 -2075 -225 -3044 -525 -780 -242 -1550 -588
-2108 -947 l-93 -60 0 -1843 c0 -1013 -3 -1857 -6 -1874 -6 -30 -7 -31 -65
-31 -52 0 -59 -2 -59 -20 0 -17 -7 -20 -40 -20 -33 0 -40 -3 -40 -20 0 -17 -7
-20 -45 -20 -38 0 -45 -3 -45 -20 0 -13 -7 -20 -20 -20 -15 0 -20 -7 -20 -25
0 -22 -4 -25 -40 -25 -33 0 -40 -3 -40 -20 0 -13 -7 -20 -20 -20 -13 0 -20 -7
-20 -20 0 -15 -7 -20 -25 -20 -18 0 -25 -5 -25 -20 0 -13 -7 -20 -20 -20 -13
0 -20 -7 -20 -20 0 -13 -7 -20 -20 -20 -13 0 -20 -7 -20 -20 0 -13 -7 -20 -20
-20 -15 0 -20 -7 -20 -25 0 -18 -5 -25 -20 -25 -13 0 -20 -7 -20 -20 0 -13 -7
-20 -20 -20 -17 0 -20 -7 -20 -40 0 -36 -2 -40 -25 -40 -18 0 -25 -5 -25 -20
0 -13 -7 -20 -20 -20 -17 0 -20 -7 -20 -45 0 -38 -3 -45 -20 -45 -17 0 -20 -7
-20 -40 0 -33 -3 -40 -20 -40 -18 0 -20 -7 -20 -60 0 -53 -2 -60 -20 -60 -18
0 -20 -7 -20 -65 0 -58 -2 -65 -20 -65 -19 0 -20 -7 -20 -105 l0 -105 -25 0
-25 0 0 -205 c0 -198 -1 -205 -20 -205 -20 0 -20 -7 -20 -295 0 -288 0 -295
20 -295 19 0 20 -7 20 -205 l0 -205 25 0 25 0 0 -105 c0 -98 1 -105 20 -105
18 0 20 -7 20 -65 0 -58 2 -65 20 -65 18 0 20 -7 20 -60 0 -53 2 -60 20 -60
17 0 20 -7 20 -45 0 -38 3 -45 20 -45 13 0 20 -7 20 -20 0 -13 7 -20 20 -20
17 0 20 -7 20 -40 0 -36 3 -40 25 -40 18 0 25 -5 25 -20 0 -13 7 -20 20 -20
13 0 20 -7 20 -20 0 -13 7 -20 20 -20 15 0 20 -7 20 -25 0 -18 5 -25 20 -25
13 0 20 -7 20 -20 0 -13 7 -20 20 -20 13 0 20 -7 20 -20 0 -13 7 -20 20 -20
13 0 20 -7 20 -20 0 -17 7 -20 45 -20 38 0 45 -3 45 -20 0 -17 7 -20 40 -20
33 0 40 -3 40 -20 0 -17 7 -20 40 -20 36 0 40 -2 40 -25 0 -25 1 -25 85 -25
78 0 85 -2 85 -20 0 -18 8 -20 132 -22 l131 -3 27 -85 c73 -234 233 -586 385
-850 597 -1038 1649 -2019 3090 -2885 616 -370 1390 -757 2007 -1005 l156 -63
141 57 c337 134 807 350 1158 531 1464 756 2608 1618 3393 2560 406 487 732
1046 922 1582 38 108 46 123 66 123 15 0 22 6 22 20 0 19 7 20 145 20 138 0
145 1 145 20 0 18 7 20 60 20 57 0 60 1 60 25 0 23 4 25 45 25 38 0 45 3 45
20 0 17 7 20 40 20 33 0 40 3 40 20 0 17 7 20 40 20 33 0 40 3 40 20 0 13 7
20 20 20 13 0 20 7 20 20 0 15 7 20 25 20 18 0 25 5 25 20 0 13 7 20 20 20 15
0 20 7 20 25 0 18 5 25 20 25 13 0 20 7 20 20 0 13 7 20 20 20 13 0 20 7 20
20 0 13 7 20 20 20 17 0 20 7 20 40 0 33 3 40 20 40 13 0 20 7 20 20 0 15 7
20 25 20 23 0 25 4 25 45 0 38 3 45 20 45 18 0 20 7 20 60 0 53 2 60 20 60 18
0 20 7 20 65 0 58 2 65 20 65 19 0 20 7 20 105 0 98 1 105 20 105 19 0 20 7
20 185 0 178 1 185 20 185 20 0 20 7 20 315 0 308 0 315 -20 315 -19 0 -20 7
-20 205 0 198 -1 205 -20 205 -19 0 -20 7 -20 105 0 98 -1 105 -20 105 -18 0
-20 7 -20 65 0 58 -2 65 -20 65 -18 0 -20 7 -20 60 0 53 -2 60 -20 60 -17 0
-20 7 -20 40 0 36 -2 40 -25 40 -23 0 -25 4 -25 45 0 38 -3 45 -20 45 -13 0
-20 7 -20 20 0 13 -7 20 -20 20 -17 0 -20 7 -20 40 0 33 -3 40 -20 40 -13 0
-20 7 -20 20 0 13 -7 20 -20 20 -15 0 -20 7 -20 25 0 18 -5 25 -20 25 -13 0
-20 7 -20 20 0 15 -7 20 -25 20 -18 0 -25 5 -25 20 0 13 -7 20 -20 20 -13 0
-20 7 -20 20 0 13 -7 20 -20 20 -13 0 -20 7 -20 20 0 13 -7 20 -20 20 -13 0
-20 7 -20 20 0 17 -7 20 -40 20 -36 0 -40 3 -40 25 0 23 -4 25 -45 25 -38 0
-45 3 -45 20 0 13 -7 20 -20 20 -13 0 -20 7 -20 20 0 17 -7 20 -40 20 -33 0
-40 3 -40 20 0 18 -7 20 -65 20 -58 0 -65 2 -65 20 0 11 -7 20 -15 20 -13 0
-15 213 -15 1855 l0 1856 -113 73 c-462 302 -1168 626 -1872 862 -960 320
-1902 502 -3000 579 -267 19 -1172 28 -1440 15z m2689 -2026 c12 -5 16 -20 16
-64 l0 -58 -39 5 c-91 12 -131 -29 -131 -134 l0 -63 115 0 115 0 0 75 0 74 58
17 c31 9 62 19 69 21 9 4 13 -21 15 -89 l3 -93 78 -3 77 -3 0 -54 0 -54 -77
-3 -78 -3 -3 -120 c-7 -249 9 -291 104 -283 l54 5 0 -54 c0 -48 -3 -54 -26
-63 -37 -14 -140 -12 -177 4 -40 17 -71 51 -86 95 -7 21 -11 109 -11 227 l0
194 -115 0 -115 0 0 -260 0 -260 -75 0 -75 0 0 260 0 260 -50 0 -50 0 0 55 0
55 50 0 50 0 0 53 c1 123 40 200 123 242 50 25 141 34 181 19z m-3429 -49 c87
-36 58 -155 -37 -155 -94 0 -121 125 -34 160 29 12 32 12 71 -5z m-886 -303
c140 -363 141 -365 148 -359 3 3 65 151 137 329 l133 323 101 3 102 3 0 -446
0 -445 -70 0 -70 0 0 345 c0 190 -3 345 -7 345 -5 0 -69 -154 -143 -343 l-135
-342 -50 -3 -51 -3 -139 345 -140 345 -3 -344 -2 -345 -70 0 -70 0 0 445 0
445 108 0 107 0 114 -298z m1469 43 l52 -16 0 -68 0 -68 -40 19 c-160 80 -316
-34 -297 -216 7 -68 27 -108 73 -143 50 -38 141 -44 209 -14 26 12 49 21 51
21 2 0 4 -29 4 -64 l0 -64 -47 -16 c-68 -23 -189 -21 -257 5 -74 27 -146 105
-171 184 -34 108 -8 251 61 342 73 96 228 137 362 98z m1027 -14 c106 -47 163
-136 172 -272 11 -148 -49 -269 -161 -326 -74 -39 -215 -45 -300 -13 -69 26
-128 81 -159 148 -31 70 -31 237 1 307 40 87 117 152 209 175 63 15 182 6 238
-19z m585 18 l50 -11 0 -68 0 -69 -45 20 c-32 14 -62 19 -102 17 -48 -3 -59
-7 -77 -31 -33 -44 -10 -72 104 -129 105 -52 134 -79 150 -140 22 -81 -12
-160 -88 -205 -39 -23 -60 -28 -137 -31 -57 -2 -107 2 -135 10 l-45 14 -3 71
-3 70 53 -26 c96 -47 218 -30 218 31 0 38 -23 61 -98 95 -93 43 -137 74 -157
113 -20 38 -19 123 1 167 43 89 174 132 314 102z m631 -16 c95 -42 148 -115
169 -231 30 -170 -48 -329 -188 -382 -78 -30 -225 -25 -292 9 -106 55 -152
131 -158 267 -9 190 64 305 221 349 69 20 190 13 248 -12z m-1701 -58 c0 -72
-1 -75 -19 -65 -29 15 -98 12 -132 -6 -58 -30 -69 -74 -69 -296 l0 -198 -75 0
-75 0 0 315 0 315 75 0 75 0 0 -47 0 -48 20 33 c30 49 75 72 143 72 l57 0 0
-75z m-1090 -250 l0 -315 -75 0 -75 0 0 315 0 315 75 0 75 0 0 -315z m-60
-1155 l0 -400 180 0 180 0 0 -45 0 -45 -230 0 -230 0 0 445 0 445 50 0 50 0 0
-400z m856 130 c83 -41 134 -142 134 -267 l0 -63 -225 0 c-255 0 -238 7 -210
-87 39 -132 196 -177 348 -98 l47 24 0 -44 c0 -42 -2 -46 -39 -65 -104 -52
-265 -49 -346 8 -143 100 -168 361 -50 517 74 97 226 130 341 75z m642 -1 c85
-50 95 -86 100 -376 l4 -243 -51 0 -51 0 0 45 c0 25 -2 45 -4 45 -2 0 -23 -20
-47 -44 -80 -80 -207 -88 -289 -19 -44 36 -60 74 -60 137 0 137 58 184 266
216 70 10 129 21 131 24 12 11 -11 89 -34 116 -48 57 -154 59 -251 5 -24 -14
-46 -25 -48 -25 -2 0 -4 20 -4 45 0 39 3 46 30 60 91 47 241 54 308 14z m1167
-3 c30 -18 50 -40 67 -73 22 -46 23 -59 26 -295 l3 -248 -44 0 -45 0 -4 218
c-3 195 -6 222 -25 264 -54 119 -222 108 -284 -19 -23 -45 -24 -61 -27 -255
l-4 -208 -44 0 -44 0 0 315 0 315 45 0 45 0 0 -50 c0 -27 5 -50 10 -50 6 0 10
4 10 8 0 5 17 25 37 46 69 69 190 83 278 32z m-545 -24 l0 -48 -60 4 c-59 4
-61 4 -99 -35 -60 -60 -71 -111 -71 -330 l0 -183 -50 0 -50 0 0 315 0 315 50
0 49 0 3 -62 3 -63 25 45 c35 62 80 90 146 90 l54 0 0 -48z m-1163 -2838 l121
-305 -55 3 -56 3 -26 70 -27 70 -126 3 -126 3 -27 -81 -27 -80 -49 0 c-27 0
-49 3 -49 8 0 4 48 143 107 310 l108 302 55 0 55 0 122 -306z m465 89 c47
-120 89 -227 92 -238 5 -14 34 44 105 215 l98 235 71 3 72 3 0 -118 c0 -65 -3
-202 -7 -305 l-6 -188 -44 0 -43 0 0 258 -1 257 -19 -55 c-10 -30 -57 -145
-103 -255 l-84 -200 -33 0 -33 0 -79 190 c-44 105 -90 222 -103 260 l-24 70
-1 -262 0 -263 -45 0 -45 0 0 305 0 305 73 0 74 0 85 -217z m902 195 c22 -5
55 -25 73 -43 28 -28 33 -40 33 -81 0 -59 -26 -106 -72 -130 l-32 -17 43 -20
c57 -27 81 -67 81 -136 0 -65 -25 -110 -78 -143 -33 -21 -51 -23 -185 -26
l-148 -4 6 269 c3 147 8 286 11 308 l5 40 112 -3 c61 -2 130 -8 151 -14z
m-2124 -37 l0 -38 -52 -7 c-29 -3 -68 -6 -87 -6 l-34 0 7 -177 c3 -98 9 -217
12 -265 l7 -88 -50 0 -50 0 -6 118 c-4 64 -10 182 -13 262 l-7 145 -88 -3 -89
-4 0 41 c0 36 3 41 23 42 12 1 81 5 152 8 72 4 163 8 203 9 l72 2 0 -39z
m2792 -284 c56 -169 98 -310 95 -313 -3 -4 -27 -2 -54 2 l-47 9 -24 78 -24 77
-94 2 c-52 1 -108 2 -125 2 -30 1 -33 -3 -61 -74 l-29 -75 -54 3 -53 4 13 31
c7 18 61 142 120 277 59 135 111 255 116 268 8 21 14 23 65 20 l55 -3 101
-308z m-3360 38 c9 -137 17 -274 17 -302 l1 -53 -60 0 -60 0 -162 230 c-146
206 -187 257 -173 218 3 -10 35 -434 35 -470 0 -4 -22 -8 -48 -8 l-49 0 -19
303 c-11 166 -20 303 -19 303 0 1 28 4 62 8 l61 7 163 -231 c89 -126 164 -229
166 -227 1 2 -4 100 -12 218 -20 291 -24 261 33 257 l47 -3 17 -250z m3881
233 c36 -11 37 -12 37 -60 0 -26 -2 -48 -4 -48 -2 0 -23 9 -47 20 -94 42 -189
15 -189 -54 0 -43 22 -71 87 -113 124 -79 161 -134 148 -219 -14 -94 -91 -140
-222 -132 -45 3 -92 12 -110 22 -31 16 -33 20 -33 72 l0 55 33 -24 c99 -74
227 -58 227 28 0 43 -21 68 -103 124 -40 27 -80 57 -89 68 -31 34 -50 93 -43
133 21 123 145 175 308 128z m-4579 -49 c11 -58 13 -56 -104 -64 -61 -4 -113
-11 -115 -16 -3 -4 -2 -45 1 -89 l7 -82 107 7 108 7 4 -40 3 -41 -85 -6 c-140
-10 -131 -5 -125 -83 11 -119 8 -115 68 -108 29 3 82 8 118 12 l66 6 7 -37 c4
-20 5 -40 2 -43 -7 -6 -316 -34 -331 -29 -6 2 -21 131 -35 305 -25 301 -25
302 -5 303 22 1 286 26 296 28 4 0 9 -13 13 -30z m5044 16 l52 -16 0 -49 c0
-46 -11 -63 -25 -41 -3 5 -28 17 -56 26 -89 30 -159 -1 -159 -69 0 -39 23 -67
95 -115 106 -72 135 -112 135 -189 0 -125 -126 -190 -285 -147 -80 21 -88 31
-80 89 l7 45 37 -24 c86 -56 187 -54 211 5 20 49 2 79 -94 151 -121 91 -150
142 -127 227 27 100 154 147 289 107z m499 -49 c3 -2 172 -630 170 -631 -1 -1
-25 1 -54 3 l-51 4 -12 46 c-6 26 -15 63 -21 83 l-9 36 -88 7 c-48 4 -103 9
-122 12 l-36 6 -34 -77 -35 -76 -50 6 c-27 4 -51 8 -53 10 -2 1 62 133 142
293 l145 289 53 -5 c29 -2 54 -5 55 -6z m-6165 -32 c57 -19 114 -73 142 -133
17 -37 21 -66 21 -146 0 -87 -3 -106 -25 -148 -53 -104 -138 -150 -320 -171
-69 -8 -126 -13 -128 -12 -7 7 -65 597 -59 602 24 24 305 30 369 8z m6633 -19
c188 -17 294 -66 341 -157 59 -114 23 -304 -72 -388 -78 -68 -159 -84 -328
-64 -65 7 -120 15 -122 16 -3 4 66 577 72 596 2 7 12 11 21 8 10 -2 50 -7 88
-11z m-7172 -217 c20 -165 24 -224 16 -263 -21 -111 -93 -165 -230 -173 -66
-4 -85 -1 -123 18 -48 23 -88 77 -106 142 -10 35 -62 420 -57 424 1 1 23 5 50
9 37 6 47 4 47 -7 0 -46 52 -403 61 -421 46 -90 159 -110 230 -41 41 40 44 83
15 303 -14 107 -26 198 -26 202 0 7 22 11 81 17 13 2 20 -33 42 -210z m-620
95 c4 -20 5 -39 3 -41 -3 -2 -40 -9 -83 -16 -60 -9 -79 -16 -81 -29 -2 -9 13
-126 33 -258 20 -133 34 -243 32 -245 -2 -2 -24 -8 -48 -12 l-45 -9 -38 261
c-21 144 -39 262 -40 263 -1 1 -40 -4 -86 -12 -47 -7 -86 -12 -86 -12 -1 1 -5
20 -8 42 l-7 41 203 31 c266 40 244 40 251 -4z m8669 7 c70 -26 118 -67 148
-126 22 -43 25 -62 25 -154 0 -93 -3 -111 -26 -160 -50 -105 -129 -160 -240
-168 -130 -9 -241 52 -290 160 -33 73 -33 197 1 282 28 74 98 147 161 169 63
22 157 21 221 -3z m-9227 -106 c3 -25 5 -47 3 -49 -2 -2 -23 1 -48 7 -85 19
-170 -23 -170 -83 0 -43 38 -77 115 -105 108 -39 154 -70 176 -117 45 -100 1
-193 -110 -232 -47 -16 -177 -20 -198 -7 -7 5 -16 29 -19 55 l-7 47 43 -15
c83 -29 170 -13 195 36 14 25 14 33 1 63 -15 37 -39 53 -133 87 -126 47 -169
99 -161 194 5 60 27 95 81 125 54 31 83 38 158 39 l67 1 7 -46z m9726 26 c183
-33 239 -74 239 -174 0 -87 -52 -158 -126 -172 -31 -6 -33 -8 -21 -23 8 -9 20
-27 27 -40 14 -28 71 -233 66 -238 -2 -2 -27 -1 -55 3 -57 7 -52 -2 -87 152
-18 85 -50 127 -101 136 -18 3 -33 2 -33 -2 0 -14 -39 -235 -42 -238 -2 -1
-22 0 -46 3 -30 4 -42 10 -42 22 0 32 95 591 101 591 3 0 57 -9 120 -20z"/>
<path d="M8034 12442 c-73 -35 -112 -122 -101 -228 12 -117 69 -174 171 -174
99 0 147 40 168 141 21 104 -7 202 -72 251 -38 28 -116 33 -166 10z"/>
<path d="M9266 12450 c-72 -22 -115 -99 -116 -205 0 -133 61 -205 174 -205
117 0 165 60 166 205 0 106 -25 160 -90 193 -46 23 -85 26 -134 12z"/>
<path d="M7311 11160 c-39 -9 -77 -35 -103 -71 -22 -29 -48 -100 -41 -111 2
-5 80 -8 174 -8 l169 0 0 33 c0 18 -10 53 -22 77 -34 66 -103 98 -177 80z"/>
<path d="M7995 10905 c-95 -15 -149 -36 -164 -63 -6 -12 -11 -41 -11 -66 0
-57 29 -94 85 -106 115 -26 215 70 215 208 0 49 5 48 -125 27z"/>
<path d="M7391 8555 c-1 -12 -19 -75 -41 -140 -22 -65 -40 -123 -40 -127 0 -4
43 -8 95 -8 52 0 95 2 95 5 0 6 -86 238 -100 270 -9 20 -9 20 -9 0z"/>
<path d="M8770 8485 l0 -85 64 0 c59 0 66 2 90 31 62 73 15 139 -99 139 l-55
0 0 -85z"/>
<path d="M8767 8313 c-4 -3 -7 -48 -7 -100 l0 -93 65 0 c100 0 145 31 145 99
0 44 -37 81 -90 92 -55 10 -104 11 -113 2z"/>
<path d="M9440 8517 c0 -7 -22 -67 -49 -133 l-50 -119 42 -7 c58 -9 147 -10
147 0 0 4 -16 59 -35 122 -19 63 -35 123 -35 133 0 9 -4 17 -10 17 -5 0 -10
-6 -10 -13z"/>
<path d="M11015 8380 c-11 -25 -39 -85 -62 -134 -24 -49 -42 -91 -39 -93 7 -7
177 -25 183 -20 2 3 -9 58 -26 123 -16 66 -31 130 -33 144 -4 22 -6 20 -23
-20z"/>
<path d="M4692 8403 c-32 -4 -34 -6 -29 -36 3 -18 13 -106 22 -197 23 -235 14
-214 92 -207 153 15 233 105 220 247 -6 74 -38 134 -87 167 -33 21 -54 26
-113 28 -40 2 -87 1 -105 -2z"/>
<path d="M11540 8364 c0 -5 -12 -103 -26 -217 -14 -115 -23 -211 -21 -214 3
-2 39 -7 81 -10 90 -7 146 10 194 60 58 60 81 189 46 263 -21 45 -75 90 -121
104 -55 15 -153 24 -153 14z"/>
<path d="M12291 8270 c-47 -11 -81 -39 -115 -94 -25 -40 -30 -60 -34 -131 -4
-72 -1 -90 18 -129 49 -102 192 -133 278 -61 63 53 100 204 72 289 -31 94
-125 148 -219 126z"/>
<path d="M12898 8174 c-13 -23 -30 -176 -20 -186 5 -5 39 -11 75 -11 56 -2 69
1 91 22 50 47 44 126 -12 155 -35 18 -128 32 -134 20z"/>
</g>
</svg>
